<svg version="1.1" xmlns="http://www.w3.org/2000/svg" viewBox="0 0 1259.391062417154 809.945501090009" width="2518.782124834308" height="1619.891002180018">
  <!-- svg-source:excalidraw -->
  
  <defs>
    <style class="style-fonts">
      @font-face {
        font-family: "Virgil";
        src: url("https://excalidraw.com/Virgil.woff2");
      }
      @font-face {
        font-family: "Cascadia";
        src: url("https://excalidraw.com/Cascadia.woff2");
      }
    </style>
  </defs>
  <rect x="0" y="0" width="1259.391062417154" height="809.945501090009" fill="#ffffff"></rect><g stroke-linecap="round" transform="translate(14.797312417153876 27.3125) rotate(0 77.6171875 177.48046875)"><path d="M0 0 C31.4 0, 62.8 0, 155.23 0 M0 0 C60.88 0, 121.77 0, 155.23 0 M155.23 0 C155.23 137.58, 155.23 275.17, 155.23 354.96 M155.23 0 C155.23 133.1, 155.23 266.21, 155.23 354.96 M155.23 354.96 C116.84 354.96, 78.46 354.96, 0 354.96 M155.23 354.96 C112.78 354.96, 70.32 354.96, 0 354.96 M0 354.96 C0 233.31, 0 111.65, 0 0 M0 354.96 C0 216.5, 0 78.03, 0 0" stroke="#000000" stroke-width="1" fill="none"></path></g><g transform="translate(37.351999917153876 180.34375) rotate(0 55.5 11.5)"><text x="0" y="19" font-family="Helvetica, Segoe UI Emoji" font-size="20px" fill="#000000" text-anchor="start" style="white-space: pre;" direction="ltr">HTTP Client</text></g><g stroke-linecap="round" transform="translate(410.9809061671539 23.8046875) rotate(0 84.40234375 179.76171875)"><path d="M0 0 C67.37 0, 134.73 0, 168.8 0 M0 0 C57.94 0, 115.88 0, 168.8 0 M168.8 0 C168.8 94.74, 168.8 189.48, 168.8 359.52 M168.8 0 C168.8 112.55, 168.8 225.11, 168.8 359.52 M168.8 359.52 C123.53 359.52, 78.25 359.52, 0 359.52 M168.8 359.52 C117.85 359.52, 66.89 359.52, 0 359.52 M0 359.52 C0 267.83, 0 176.14, 0 0 M0 359.52 C0 217.86, 0 76.19, 0 0" stroke="#000000" stroke-width="1" fill="none"></path></g><g transform="translate(418.3441874171539 177.98046875) rotate(0 77 23)"><text x="77" y="19" font-family="Helvetica, Segoe UI Emoji" font-size="20px" fill="#000000" text-anchor="middle" style="white-space: pre;" direction="ltr">Application Class</text><text x="77" y="42" font-family="Helvetica, Segoe UI Emoji" font-size="20px" fill="#000000" text-anchor="middle" style="white-space: pre;" direction="ltr">(app.rb)</text></g><g stroke-linecap="round" transform="translate(828.2074686671539 18.40625) rotate(0 78 181)"><path d="M0 0 C49.63 0, 99.25 0, 156 0 M0 0 C37.36 0, 74.73 0, 156 0 M156 0 C156 140.12, 156 280.23, 156 362 M156 0 C156 136.58, 156 273.16, 156 362 M156 362 C95.25 362, 34.5 362, 0 362 M156 362 C102.51 362, 49.02 362, 0 362 M0 362 C0 232.82, 0 103.64, 0 0 M0 362 C0 237.72, 0 113.44, 0 0" stroke="#000000" stroke-width="1" fill="none"></path></g><g transform="translate(834.2074686671539 180.40625) rotate(0 72 19)"><text x="72" y="15" font-family="Helvetica, Segoe UI Emoji" font-size="16px" fill="#000000" text-anchor="middle" style="white-space: pre;" direction="ltr">Repository Class </text><text x="72" y="34" font-family="Helvetica, Segoe UI Emoji" font-size="16px" fill="#000000" text-anchor="middle" style="white-space: pre;" direction="ltr">(artist_repository.rb)</text></g><g stroke-linecap="round" transform="translate(1117.844187417154 17.76171875) rotate(0 65.7734375 185.44140625)"><path d="M0 0 C32.99 0, 65.97 0, 131.55 0 M0 0 C29.25 0, 58.51 0, 131.55 0 M131.55 0 C131.55 112.4, 131.55 224.8, 131.55 370.88 M131.55 0 C131.55 110.13, 131.55 220.26, 131.55 370.88 M131.55 370.88 C95.49 370.88, 59.43 370.88, 0 370.88 M131.55 370.88 C99.85 370.88, 68.16 370.88, 0 370.88 M0 370.88 C0 246.49, 0 122.1, 0 0 M0 370.88 C0 284.08, 0 197.28, 0 0" stroke="#000000" stroke-width="1" fill="none"></path></g><g transform="translate(1139.617624917154 191.703125) rotate(0 44 11.5)"><text x="44" y="19" font-family="Helvetica, Segoe UI Emoji" font-size="20px" fill="#000000" text-anchor="middle" style="white-space: pre;" direction="ltr">Database</text></g><g stroke-linecap="round"><g transform="translate(177.27387491715388 49.99379756507116) rotate(0 110.48046875 -1.001410425604817)"><path d="M0 0 C36.83 -0.33, 184.13 -1.67, 220.96 -2 M0 0 C36.83 -0.33, 184.13 -1.67, 220.96 -2" stroke="#000000" stroke-width="1" fill="none"></path></g><g transform="translate(177.27387491715388 49.99379756507116) rotate(0 110.48046875 -1.001410425604817)"><path d="M192.86 8.51 C201.97 5.11, 211.07 1.7, 220.96 -2 M192.86 8.51 C203.85 4.4, 214.83 0.29, 220.96 -2" stroke="#000000" stroke-width="1" fill="none"></path></g><g transform="translate(177.27387491715388 49.99379756507116) rotate(0 110.48046875 -1.001410425604817)"><path d="M192.68 -12.01 C201.84 -8.77, 211 -5.53, 220.96 -2 M192.68 -12.01 C203.74 -8.1, 214.79 -4.18, 220.96 -2" stroke="#000000" stroke-width="1" fill="none"></path></g></g><g transform="translate(181.00824991715388 10) rotate(0 56 9.5)"><text x="56" y="15" font-family="Helvetica, Segoe UI Emoji" font-size="16px" fill="#000000" text-anchor="middle" style="white-space: pre;" direction="ltr">HTTP Request:</text></g><g transform="translate(303.4105936671539 10.82421875) rotate(0 48.5 9.5)"><text x="48.5" y="15" font-family="Helvetica, Segoe UI Emoji" font-size="16px" fill="#000000" text-anchor="middle" style="white-space: pre;" direction="ltr">POST /artists</text></g><g transform="translate(203.83246866715388 60.078125) rotate(0 80.5 28)"><text x="0" y="14.666666666666668" font-family="Helvetica, Segoe UI Emoji" font-size="16px" fill="#000000" text-anchor="start" style="white-space: pre;" direction="ltr">Body:</text><text x="0" y="33.333333333333336" font-family="Helvetica, Segoe UI Emoji" font-size="16px" fill="#000000" text-anchor="start" style="white-space: pre;" direction="ltr">name = "Wild Nothing"</text><text x="0" y="52" font-family="Helvetica, Segoe UI Emoji" font-size="16px" fill="#000000" text-anchor="start" style="white-space: pre;" direction="ltr">genre = "Indie"</text></g><g stroke-linecap="round"><g transform="translate(585.3598124171539 97.40234375) rotate(0 115.732421875 0)"><path d="M0 0 C38.58 0, 192.89 0, 231.46 0 M0 0 C38.58 0, 192.89 0, 231.46 0" stroke="#000000" stroke-width="1" fill="none"></path></g><g transform="translate(585.3598124171539 97.40234375) rotate(0 115.732421875 0)"><path d="M203.27 10.26 C213.05 6.7, 222.82 3.14, 231.46 0 M203.27 10.26 C212.26 6.99, 221.25 3.72, 231.46 0" stroke="#000000" stroke-width="1" fill="none"></path></g><g transform="translate(585.3598124171539 97.40234375) rotate(0 115.732421875 0)"><path d="M203.27 -10.26 C213.05 -6.7, 222.82 -3.14, 231.46 0 M203.27 -10.26 C212.26 -6.99, 221.25 -3.72, 231.46 0" stroke="#000000" stroke-width="1" fill="none"></path></g></g><g transform="translate(635.1176249171539 67.67578125) rotate(0 68 9.5)"><text x="0" y="15" font-family="Helvetica, Segoe UI Emoji" font-size="16px" fill="#000000" text-anchor="start" style="white-space: pre;" direction="ltr">Call create method</text></g><g stroke-linecap="round"><g transform="translate(996.2113749171539 133.53515625) rotate(0 53.91796875 0)"><path d="M0 0 C17.97 0, 89.86 0, 107.84 0 M0 0 C17.97 0, 89.86 0, 107.84 0" stroke="#000000" stroke-width="1" fill="none"></path></g><g transform="translate(996.2113749171539 133.53515625) rotate(0 53.91796875 0)"><path d="M79.65 10.26 C86.36 7.82, 93.08 5.37, 107.84 0 M79.65 10.26 C86.35 7.82, 93.05 5.38, 107.84 0" stroke="#000000" stroke-width="1" fill="none"></path></g><g transform="translate(996.2113749171539 133.53515625) rotate(0 53.91796875 0)"><path d="M79.65 -10.26 C86.36 -7.82, 93.08 -5.37, 107.84 0 M79.65 -10.26 C86.35 -7.82, 93.05 -5.38, 107.84 0" stroke="#000000" stroke-width="1" fill="none"></path></g></g><g transform="translate(992.0512186671539 65.640625) rotate(0 59 28)"><text x="0" y="14.666666666666668" font-family="Helvetica, Segoe UI Emoji" font-size="16px" fill="#000000" text-anchor="start" style="white-space: pre;" direction="ltr">Send SQL code </text><text x="0" y="33.333333333333336" font-family="Helvetica, Segoe UI Emoji" font-size="16px" fill="#000000" text-anchor="start" style="white-space: pre;" direction="ltr">to create new</text><text x="0" y="52" font-family="Helvetica, Segoe UI Emoji" font-size="16px" fill="#000000" text-anchor="start" style="white-space: pre;" direction="ltr">artist record</text></g><g stroke-linecap="round"><g transform="translate(1105.043406167154 227.83984375) rotate(0 -54.37890625 0)"><path d="M0 0 C-18.13 0, -90.63 0, -108.76 0 M0 0 C-18.13 0, -90.63 0, -108.76 0" stroke="#000000" stroke-width="1" fill="none"></path></g><g transform="translate(1105.043406167154 227.83984375) rotate(0 -54.37890625 0)"><path d="M-80.57 -10.26 C-89.82 -6.89, -99.07 -3.52, -108.76 0 M-80.57 -10.26 C-87.88 -7.6, -95.2 -4.93, -108.76 0" stroke="#000000" stroke-width="1" fill="none"></path></g><g transform="translate(1105.043406167154 227.83984375) rotate(0 -54.37890625 0)"><path d="M-80.57 10.26 C-89.82 6.89, -99.07 3.52, -108.76 0 M-80.57 10.26 C-87.88 7.6, -95.2 4.93, -108.76 0" stroke="#000000" stroke-width="1" fill="none"></path></g></g><g transform="translate(992.4613749171539 241.9609375) rotate(0 57.5 9.5)"><text x="0" y="15" font-family="Helvetica, Segoe UI Emoji" font-size="16px" fill="#000000" text-anchor="start" style="white-space: pre;" direction="ltr">Returns nothing</text></g><g stroke-linecap="round"><g transform="translate(813.3754374171539 265.62890625) rotate(0 -112.451171875 0)"><path d="M0 0 C-37.48 0, -187.42 0, -224.9 0 M0 0 C-37.48 0, -187.42 0, -224.9 0" stroke="#000000" stroke-width="1" fill="none"></path></g><g transform="translate(813.3754374171539 265.62890625) rotate(0 -112.451171875 0)"><path d="M-196.71 -10.26 C-205.62 -7.02, -214.52 -3.78, -224.9 0 M-196.71 -10.26 C-207.98 -6.16, -219.26 -2.05, -224.9 0" stroke="#000000" stroke-width="1" fill="none"></path></g><g transform="translate(813.3754374171539 265.62890625) rotate(0 -112.451171875 0)"><path d="M-196.71 10.26 C-205.62 7.02, -214.52 3.78, -224.9 0 M-196.71 10.26 C-207.98 6.16, -219.26 2.05, -224.9 0" stroke="#000000" stroke-width="1" fill="none"></path></g></g><g transform="translate(646.5668436671539 238.84375) rotate(0 57.5 9.5)"><text x="0" y="15" font-family="Helvetica, Segoe UI Emoji" font-size="16px" fill="#000000" text-anchor="start" style="white-space: pre;" direction="ltr">Returns nothing</text></g><g stroke-linecap="round"><g transform="translate(400.4965311671539 320.55078125) rotate(0 -109.111328125 0)"><path d="M0 0 C-36.37 0, -181.85 0, -218.22 0 M0 0 C-36.37 0, -181.85 0, -218.22 0" stroke="#000000" stroke-width="1" fill="none"></path></g><g transform="translate(400.4965311671539 320.55078125) rotate(0 -109.111328125 0)"><path d="M-190.03 -10.26 C-196.96 -7.74, -203.88 -5.22, -218.22 0 M-190.03 -10.26 C-197.52 -7.54, -205 -4.81, -218.22 0" stroke="#000000" stroke-width="1" fill="none"></path></g><g transform="translate(400.4965311671539 320.55078125) rotate(0 -109.111328125 0)"><path d="M-190.03 10.26 C-196.96 7.74, -203.88 5.22, -218.22 0 M-190.03 10.26 C-197.52 7.54, -205 4.81, -218.22 0" stroke="#000000" stroke-width="1" fill="none"></path></g></g><g transform="translate(232.83246866715388 249.32421875) rotate(0 61.5 28)"><text x="0" y="14.666666666666668" font-family="Helvetica, Segoe UI Emoji" font-size="16px" fill="#000000" text-anchor="start" style="white-space: pre;" direction="ltr">HTTP Response:</text><text x="0" y="33.333333333333336" font-family="Helvetica, Segoe UI Emoji" font-size="16px" fill="#000000" text-anchor="start" style="white-space: pre;" direction="ltr">Status: 200 OK</text><text x="0" y="52" font-family="Helvetica, Segoe UI Emoji" font-size="16px" fill="#000000" text-anchor="start" style="white-space: pre;" direction="ltr">Body: " "</text></g><g stroke-linecap="round" transform="translate(10 438.613469840009) rotate(0 77.6171875 177.48046875)"><path d="M0 0 C51.39 0, 102.79 0, 155.23 0 M0 0 C53.55 0, 107.1 0, 155.23 0 M155.23 0 C155.23 82.61, 155.23 165.23, 155.23 354.96 M155.23 0 C155.23 89.96, 155.23 179.91, 155.23 354.96 M155.23 354.96 C117.96 354.96, 80.69 354.96, 0 354.96 M155.23 354.96 C123.24 354.96, 91.25 354.96, 0 354.96 M0 354.96 C0 225.84, 0 96.73, 0 0 M0 354.96 C0 277.39, 0 199.81, 0 0" stroke="#000000" stroke-width="1" fill="none"></path></g><g transform="translate(32.5546875 591.644719840009) rotate(0 55.5 11.5)"><text x="0" y="19" font-family="Helvetica, Segoe UI Emoji" font-size="20px" fill="#000000" text-anchor="start" style="white-space: pre;" direction="ltr">HTTP Client</text></g><g stroke-linecap="round" transform="translate(406.18359375 435.105657340009) rotate(0 84.40234375 179.76171875)"><path d="M0 0 C63.65 0, 127.29 0, 168.8 0 M0 0 C58.39 0, 116.77 0, 168.8 0 M168.8 0 C168.8 140.3, 168.8 280.6, 168.8 359.52 M168.8 0 C168.8 89.99, 168.8 179.98, 168.8 359.52 M168.8 359.52 C135.01 359.52, 101.21 359.52, 0 359.52 M168.8 359.52 C128.91 359.52, 89.01 359.52, 0 359.52 M0 359.52 C0 277.09, 0 194.66, 0 0 M0 359.52 C0 262.31, 0 165.1, 0 0" stroke="#000000" stroke-width="1" fill="none"></path></g><g transform="translate(413.546875 589.281438590009) rotate(0 77 23)"><text x="77" y="19" font-family="Helvetica, Segoe UI Emoji" font-size="20px" fill="#000000" text-anchor="middle" style="white-space: pre;" direction="ltr">Application Class</text><text x="77" y="42" font-family="Helvetica, Segoe UI Emoji" font-size="20px" fill="#000000" text-anchor="middle" style="white-space: pre;" direction="ltr">(app.rb)</text></g><g stroke-linecap="round" transform="translate(823.41015625 429.707219840009) rotate(0 77.99999999999994 181)"><path d="M0 0 C31.73 0, 63.46 0, 156 0 M0 0 C40.92 0, 81.83 0, 156 0 M156 0 C156 137.38, 156 274.76, 156 362 M156 0 C156 89.35, 156 178.7, 156 362 M156 362 C96.93 362, 37.86 362, 0 362 M156 362 C108.77 362, 61.54 362, 0 362 M0 362 C0 267.93, 0 173.87, 0 0 M0 362 C0 245.35, 0 128.71, 0 0" stroke="#000000" stroke-width="1" fill="none"></path></g><g transform="translate(829.41015625 591.707219840009) rotate(0 71.99999999999994 19)"><text x="72" y="15" font-family="Helvetica, Segoe UI Emoji" font-size="16px" fill="#000000" text-anchor="middle" style="white-space: pre;" direction="ltr">Repository Class </text><text x="72" y="34" font-family="Helvetica, Segoe UI Emoji" font-size="16px" fill="#000000" text-anchor="middle" style="white-space: pre;" direction="ltr">(artist_repository.rb)</text></g><g stroke-linecap="round" transform="translate(1113.046875 429.062688590009) rotate(0 65.7734375 185.44140625)"><path d="M0 0 C39.29 0, 78.58 0, 131.55 0 M0 0 C34.5 0, 69.01 0, 131.55 0 M131.55 0 C131.55 146.34, 131.55 292.68, 131.55 370.88 M131.55 0 C131.55 136.53, 131.55 273.07, 131.55 370.88 M131.55 370.88 C85.52 370.88, 39.49 370.88, 0 370.88 M131.55 370.88 C103.6 370.88, 75.65 370.88, 0 370.88 M0 370.88 C0 265.03, 0 159.18, 0 0 M0 370.88 C0 226.89, 0 82.9, 0 0" stroke="#000000" stroke-width="1" fill="none"></path></g><g transform="translate(1134.8203125 603.004094840009) rotate(0 44 11.5)"><text x="44" y="19" font-family="Helvetica, Segoe UI Emoji" font-size="20px" fill="#000000" text-anchor="middle" style="white-space: pre;" direction="ltr">Database</text></g><g stroke-linecap="round"><g transform="translate(172.4765625 461.29476740508017) rotate(0 110.48046875 -1.0014104256048313)"><path d="M0 0 C36.83 -0.33, 184.13 -1.67, 220.96 -2 M0 0 C36.83 -0.33, 184.13 -1.67, 220.96 -2" stroke="#000000" stroke-width="1" fill="none"></path></g><g transform="translate(172.4765625 461.29476740508017) rotate(0 110.48046875 -1.0014104256048313)"><path d="M192.86 8.51 C203.2 4.64, 213.54 0.78, 220.96 -2 M192.86 8.51 C200.87 5.52, 208.88 2.52, 220.96 -2" stroke="#000000" stroke-width="1" fill="none"></path></g><g transform="translate(172.4765625 461.29476740508017) rotate(0 110.48046875 -1.0014104256048313)"><path d="M192.68 -12.01 C203.08 -8.33, 213.49 -4.65, 220.96 -2 M192.68 -12.01 C200.74 -9.16, 208.8 -6.3, 220.96 -2" stroke="#000000" stroke-width="1" fill="none"></path></g></g><g transform="translate(176.2109375 421.300969840009) rotate(0 56 9.5)"><text x="56" y="15" font-family="Helvetica, Segoe UI Emoji" font-size="16px" fill="#000000" text-anchor="middle" style="white-space: pre;" direction="ltr">HTTP Request:</text></g><g transform="translate(304.11328125 422.125188590009) rotate(0 43 9.5)"><text x="43" y="15" font-family="Helvetica, Segoe UI Emoji" font-size="16px" fill="#000000" text-anchor="middle" style="white-space: pre;" direction="ltr">GET /artists</text></g><g stroke-linecap="round"><g transform="translate(580.5625 508.703313590009) rotate(0 115.732421875 0)"><path d="M0 0 C38.58 0, 192.89 0, 231.46 0 M0 0 C38.58 0, 192.89 0, 231.46 0" stroke="#000000" stroke-width="1" fill="none"></path></g><g transform="translate(580.5625 508.703313590009) rotate(0 115.732421875 0)"><path d="M203.27 10.26 C213.98 6.36, 224.69 2.47, 231.46 0 M203.27 10.26 C213.46 6.55, 223.64 2.85, 231.46 0" stroke="#000000" stroke-width="1" fill="none"></path></g><g transform="translate(580.5625 508.703313590009) rotate(0 115.732421875 0)"><path d="M203.27 -10.26 C213.98 -6.36, 224.69 -2.47, 231.46 0 M203.27 -10.26 C213.46 -6.55, 223.64 -2.85, 231.46 0" stroke="#000000" stroke-width="1" fill="none"></path></g></g><g transform="translate(630.3203125 478.976751090009) rotate(0 54 9.5)"><text x="0" y="15" font-family="Helvetica, Segoe UI Emoji" font-size="16px" fill="#000000" text-anchor="start" style="white-space: pre;" direction="ltr">Call all method</text></g><g stroke-linecap="round"><g transform="translate(994.9195160028295 519.3143587056452) rotate(355.8347693712361 52.06665231522766 2.8437678374169195)"><path d="M0 0 C17.36 0.95, 86.78 4.74, 104.13 5.69 M0 0 C17.36 0.95, 86.78 4.74, 104.13 5.69" stroke="#000000" stroke-width="1" fill="none"></path></g><g transform="translate(994.9195160028295 519.3143587056452) rotate(355.8347693712361 52.06665231522766 2.8437678374169195)"><path d="M75.42 14.4 C83.73 11.88, 92.04 9.36, 104.13 5.69 M75.42 14.4 C83.27 12.02, 91.12 9.64, 104.13 5.69" stroke="#000000" stroke-width="1" fill="none"></path></g><g transform="translate(994.9195160028295 519.3143587056452) rotate(355.8347693712361 52.06665231522766 2.8437678374169195)"><path d="M76.54 -6.1 C84.53 -2.69, 92.51 0.72, 104.13 5.69 M76.54 -6.1 C84.08 -2.87, 91.63 0.35, 104.13 5.69" stroke="#000000" stroke-width="1" fill="none"></path></g></g><g transform="translate(989.4371908167099 448.47106218561316) rotate(0 61 28)"><text x="0" y="14.666666666666668" font-family="Helvetica, Segoe UI Emoji" font-size="16px" fill="#000000" text-anchor="start" style="white-space: pre;" direction="ltr">Send SQL Query</text><text x="0" y="33.333333333333336" font-family="Helvetica, Segoe UI Emoji" font-size="16px" fill="#000000" text-anchor="start" style="white-space: pre;" direction="ltr">to get all artist</text><text x="0" y="52" font-family="Helvetica, Segoe UI Emoji" font-size="16px" fill="#000000" text-anchor="start" style="white-space: pre;" direction="ltr">records</text></g><g stroke-linecap="round"><g transform="translate(1096.0789048466136 618.4811696872048) rotate(0 -49.57561679925868 -0.34819624555291284)"><path d="M0 0 C-16.53 -0.12, -82.63 -0.58, -99.15 -0.7 M0 0 C-16.53 -0.12, -82.63 -0.58, -99.15 -0.7" stroke="#000000" stroke-width="1" fill="none"></path></g><g transform="translate(1096.0789048466136 618.4811696872048) rotate(0 -49.57561679925868 -0.34819624555291284)"><path d="M-70.89 -10.76 C-78.15 -8.17, -85.41 -5.59, -99.15 -0.7 M-70.89 -10.76 C-81.51 -6.98, -92.14 -3.19, -99.15 -0.7" stroke="#000000" stroke-width="1" fill="none"></path></g><g transform="translate(1096.0789048466136 618.4811696872048) rotate(0 -49.57561679925868 -0.34819624555291284)"><path d="M-71.03 9.76 C-78.26 7.08, -85.48 4.39, -99.15 -0.7 M-71.03 9.76 C-81.6 5.83, -92.17 1.9, -99.15 -0.7" stroke="#000000" stroke-width="1" fill="none"></path></g></g><g transform="translate(987.4695745069884 653.261907340009) rotate(0 60.5 18.5)"><text x="0" y="15.5" font-family="Helvetica, Segoe UI Emoji" font-size="16px" fill="#000000" text-anchor="start" style="white-space: pre;" direction="ltr">Return an array</text><text x="0" y="34" font-family="Helvetica, Segoe UI Emoji" font-size="16px" fill="#000000" text-anchor="start" style="white-space: pre;" direction="ltr">of record hashes</text></g><g stroke-linecap="round"><g transform="translate(808.578125 676.929876090009) rotate(0 -112.451171875 0)"><path d="M0 0 C-37.48 0, -187.42 0, -224.9 0 M0 0 C-37.48 0, -187.42 0, -224.9 0" stroke="#000000" stroke-width="1" fill="none"></path></g><g transform="translate(808.578125 676.929876090009) rotate(0 -112.451171875 0)"><path d="M-196.71 -10.26 C-207.82 -6.22, -218.93 -2.17, -224.9 0 M-196.71 -10.26 C-206.26 -6.79, -215.8 -3.31, -224.9 0" stroke="#000000" stroke-width="1" fill="none"></path></g><g transform="translate(808.578125 676.929876090009) rotate(0 -112.451171875 0)"><path d="M-196.71 10.26 C-207.82 6.22, -218.93 2.17, -224.9 0 M-196.71 10.26 C-206.26 6.79, -215.8 3.31, -224.9 0" stroke="#000000" stroke-width="1" fill="none"></path></g></g><g transform="translate(584.7280850415896 639.2408446189115) rotate(0 117 9.5)"><text x="0" y="15" font-family="Helvetica, Segoe UI Emoji" font-size="16px" fill="#000000" text-anchor="start" style="white-space: pre;" direction="ltr">Returns an array of Artist objects</text></g><g stroke-linecap="round"><g transform="translate(395.69921875 731.851751090009) rotate(0 -109.111328125 0)"><path d="M0 0 C-36.37 0, -181.85 0, -218.22 0 M0 0 C-36.37 0, -181.85 0, -218.22 0" stroke="#000000" stroke-width="1" fill="none"></path></g><g transform="translate(395.69921875 731.851751090009) rotate(0 -109.111328125 0)"><path d="M-190.03 -10.26 C-197.91 -7.39, -205.79 -4.53, -218.22 0 M-190.03 -10.26 C-199.96 -6.65, -209.89 -3.03, -218.22 0" stroke="#000000" stroke-width="1" fill="none"></path></g><g transform="translate(395.69921875 731.851751090009) rotate(0 -109.111328125 0)"><path d="M-190.03 10.26 C-197.91 7.39, -205.79 4.53, -218.22 0 M-190.03 10.26 C-199.96 6.65, -209.89 3.03, -218.22 0" stroke="#000000" stroke-width="1" fill="none"></path></g></g><g transform="translate(172.82566145963347 630.492097285676) rotate(0 116.5 37)"><text x="0" y="15.5" font-family="Helvetica, Segoe UI Emoji" font-size="16px" fill="#000000" text-anchor="start" style="white-space: pre;" direction="ltr">HTTP Response:</text><text x="0" y="34" font-family="Helvetica, Segoe UI Emoji" font-size="16px" fill="#000000" text-anchor="start" style="white-space: pre;" direction="ltr">Status: 200 OK</text><text x="0" y="52.5" font-family="Helvetica, Segoe UI Emoji" font-size="16px" fill="#000000" text-anchor="start" style="white-space: pre;" direction="ltr">Body:</text><text x="0" y="71" font-family="Helvetica, Segoe UI Emoji" font-size="16px" fill="#000000" text-anchor="start" style="white-space: pre;" direction="ltr">"Pixies, ABBA, ... , Wild Nothing"</text></g><g transform="translate(239.6137031775403 476.2117571986754) rotate(0 43 9.5)"><text x="0" y="15" font-family="Helvetica, Segoe UI Emoji" font-size="16px" fill="#000000" text-anchor="start" style="white-space: pre;" direction="ltr">Empty body</text></g></svg>