<svg version="1.1" xmlns="http://www.w3.org/2000/svg" viewBox="0 0 1900.6088738277551 838.4227243595938" width="3801.2177476555103" height="1676.8454487191875">
  <!-- svg-source:excalidraw -->
  
  <defs>
    <style class="style-fonts">
      @font-face {
        font-family: "Virgil";
        src: url("https://excalidraw.com/Virgil.woff2");
      }
      @font-face {
        font-family: "Cascadia";
        src: url("https://excalidraw.com/Cascadia.woff2");
      }
    </style>
  </defs>
  <rect x="0" y="0" width="1900.6088738277551" height="838.4227243595938" fill="#ffffff"></rect><g stroke-linecap="round" transform="translate(10 183.18700899568512) rotate(0 122.97572727140002 316.63685242515226)"><path d="M0 0 C50.22 0, 100.44 0, 245.95 0 M0 0 C72.57 0, 145.13 0, 245.95 0 M245.95 0 C245.95 183.45, 245.95 366.89, 245.95 633.27 M245.95 0 C245.95 162.16, 245.95 324.33, 245.95 633.27 M245.95 633.27 C187.65 633.27, 129.35 633.27, 0 633.27 M245.95 633.27 C184.54 633.27, 123.12 633.27, 0 633.27 M0 633.27 C0 408.47, 0 183.66, 0 0 M0 633.27 C0 468.99, 0 304.7, 0 0" stroke="#000000" stroke-width="1" fill="none"></path></g><g transform="translate(665.415047927841 10) rotate(0 262 45.5)"><text x="0" y="73" font-family="Helvetica, Segoe UI Emoji" font-size="79.10397227015963px" fill="#000000" text-anchor="start" style="white-space: pre;" direction="ltr">GET /artists/:id</text></g><g transform="translate(34.79914873435706 462.5960849664255) rotate(0 98.5 21)"><text x="0" y="33" font-family="Helvetica, Segoe UI Emoji" font-size="36px" fill="#000000" text-anchor="start" style="white-space: pre;" direction="ltr">HTTP Client</text></g><g stroke-linecap="round" transform="translate(640.2658155787149 178.33033999839813) rotate(0 119 322.3599558079934)"><path d="M0 0 C77.08 0, 154.17 0, 238 0 M0 0 C60.19 0, 120.38 0, 238 0 M238 0 C238 214.29, 238 428.58, 238 644.72 M238 0 C238 170.72, 238 341.44, 238 644.72 M238 644.72 C157.42 644.72, 76.83 644.72, 0 644.72 M238 644.72 C185.93 644.72, 133.87 644.72, 0 644.72 M0 644.72 C0 428.36, 0 211.99, 0 0 M0 644.72 C0 474.56, 0 304.39, 0 0" stroke="#000000" stroke-width="1" fill="none"></path></g><g transform="translate(644.674651239301 437.69029580639153) rotate(0 114 42)"><text x="114" y="33" font-family="Helvetica, Segoe UI Emoji" font-size="36px" fill="#000000" text-anchor="middle" style="white-space: pre;" direction="ltr">Application </text><text x="114" y="75" font-family="Helvetica, Segoe UI Emoji" font-size="36px" fill="#000000" text-anchor="middle" style="white-space: pre;" direction="ltr">Class (app.rb)</text></g><g stroke-linecap="round"><g transform="translate(265.7922945874222 236.5292302976299) rotate(0 180.62404053633318 0)"><path d="M0 0 C60.21 0, 301.04 0, 361.25 0 M0 0 C60.21 0, 301.04 0, 361.25 0" stroke="#000000" stroke-width="1" fill="none"></path></g><g transform="translate(265.7922945874222 236.5292302976299) rotate(0 180.62404053633318 0)"><path d="M333.06 10.26 C343.64 6.41, 354.22 2.56, 361.25 0 M333.06 10.26 C343.92 6.31, 354.77 2.36, 361.25 0" stroke="#000000" stroke-width="1" fill="none"></path></g><g transform="translate(265.7922945874222 236.5292302976299) rotate(0 180.62404053633318 0)"><path d="M333.06 -10.26 C343.64 -6.41, 354.22 -2.56, 361.25 0 M333.06 -10.26 C343.92 -6.31, 354.77 -2.36, 361.25 0" stroke="#000000" stroke-width="1" fill="none"></path></g></g><g transform="translate(348.5874894504799 254.26564966414975) rotate(0 93 48)"><text x="0" y="26" font-family="Helvetica, Segoe UI Emoji" font-size="28px" fill="#000000" text-anchor="start" style="white-space: pre;" direction="ltr">HTTP Request</text><text x="0" y="58" font-family="Helvetica, Segoe UI Emoji" font-size="28px" fill="#000000" text-anchor="start" style="white-space: pre;" direction="ltr">GET /artists/1</text><text x="0" y="90" font-family="Helvetica, Segoe UI Emoji" font-size="28px" fill="#000000" text-anchor="start" style="white-space: pre;" direction="ltr">(no body)</text></g><g stroke-linecap="round" transform="translate(1163.1807005646529 179.41410742380702) rotate(0 115.5 167.4855338336486)"><path d="M0 0 C79.55 0, 159.1 0, 231 0 M0 0 C47.34 0, 94.67 0, 231 0 M231 0 C231 89.06, 231 178.13, 231 334.97 M231 0 C231 115.82, 231 231.64, 231 334.97 M231 334.97 C152.59 334.97, 74.19 334.97, 0 334.97 M231 334.97 C139.63 334.97, 48.25 334.97, 0 334.97 M0 334.97 C0 265.34, 0 195.71, 0 0 M0 334.97 C0 236.41, 0 137.85, 0 0" stroke="#000000" stroke-width="1" fill="none"></path></g><g transform="translate(1168.3411317228768 298.89964125745564) rotate(0 110 48)"><text x="110" y="26" font-family="Helvetica, Segoe UI Emoji" font-size="28px" fill="#000000" text-anchor="middle" style="white-space: pre;" direction="ltr">Repository Class </text><text x="110" y="58" font-family="Helvetica, Segoe UI Emoji" font-size="28px" fill="#000000" text-anchor="middle" style="white-space: pre;" direction="ltr">(artist_repository.</text><text x="110" y="90" font-family="Helvetica, Segoe UI Emoji" font-size="28px" fill="#000000" text-anchor="middle" style="white-space: pre;" direction="ltr">rb)</text></g><g stroke-linecap="round"><g transform="translate(890.9812103551308 268.40474280965685) rotate(0 130.0376021797464 0)"><path d="M0 0 C43.35 0, 216.73 0, 260.08 0 M0 0 C43.35 0, 216.73 0, 260.08 0" stroke="#000000" stroke-width="1" fill="none"></path></g><g transform="translate(890.9812103551308 268.40474280965685) rotate(0 130.0376021797464 0)"><path d="M231.88 10.26 C240.8 7.02, 249.72 3.77, 260.08 0 M231.88 10.26 C240.3 7.2, 248.72 4.13, 260.08 0" stroke="#000000" stroke-width="1" fill="none"></path></g><g transform="translate(890.9812103551308 268.40474280965685) rotate(0 130.0376021797464 0)"><path d="M231.88 -10.26 C240.8 -7.02, 249.72 -3.77, 260.08 0 M231.88 -10.26 C240.3 -7.2, 248.72 -4.13, 260.08 0" stroke="#000000" stroke-width="1" fill="none"></path></g></g><g transform="translate(900.1034024813 213.90282551899776) rotate(0 116 16)"><text x="0" y="26" font-family="Helvetica, Segoe UI Emoji" font-size="28px" fill="#000000" text-anchor="start" style="white-space: pre;" direction="ltr">call find(1) method</text></g><g stroke-linecap="round" transform="translate(1657.4539886716016 176.7713376591735) rotate(0 116.57744257807678 325.82569335021014)"><path d="M0 0 C81.47 0, 162.94 0, 233.15 0 M0 0 C62.52 0, 125.03 0, 233.15 0 M233.15 0 C233.15 225.41, 233.15 450.82, 233.15 651.65 M233.15 0 C233.15 189.29, 233.15 378.58, 233.15 651.65 M233.15 651.65 C170.62 651.65, 108.08 651.65, 0 651.65 M233.15 651.65 C168.62 651.65, 104.09 651.65, 0 651.65 M0 651.65 C0 515.15, 0 378.64, 0 0 M0 651.65 C0 471.71, 0 291.76, 0 0" stroke="#000000" stroke-width="1" fill="none"></path></g><g transform="translate(1713.0314312496785 486.5970310093835) rotate(0 61.000000000000114 16)"><text x="61" y="26" font-family="Helvetica, Segoe UI Emoji" font-size="28px" fill="#000000" text-anchor="middle" style="white-space: pre;" direction="ltr">Database</text></g><g stroke-linecap="round"><g transform="translate(1410.7375218285133 316.82779100811314) rotate(0 113.96654832595516 0.3181249200190166)"><path d="M0 0 C37.99 0.11, 189.94 0.53, 227.93 0.64 M0 0 C37.99 0.11, 189.94 0.53, 227.93 0.64" stroke="#000000" stroke-width="1" fill="none"></path></g><g transform="translate(1410.7375218285133 316.82779100811314) rotate(0 113.96654832595516 0.3181249200190166)"><path d="M199.71 10.82 C207.98 7.84, 216.24 4.86, 227.93 0.64 M199.71 10.82 C206.61 8.33, 213.52 5.84, 227.93 0.64" stroke="#000000" stroke-width="1" fill="none"></path></g><g transform="translate(1410.7375218285133 316.82779100811314) rotate(0 113.96654832595516 0.3181249200190166)"><path d="M199.77 -9.7 C208.02 -6.68, 216.26 -3.65, 227.93 0.64 M199.77 -9.7 C206.66 -7.17, 213.54 -4.65, 227.93 0.64" stroke="#000000" stroke-width="1" fill="none"></path></g></g><g transform="translate(1403.255469709781 240.8226338937434) rotate(0 115.5 26)"><text x="0" y="21" font-family="Helvetica, Segoe UI Emoji" font-size="22.575239034568487px" fill="#000000" text-anchor="start" style="white-space: pre;" direction="ltr">SQL query to find artist</text><text x="0" y="47" font-family="Helvetica, Segoe UI Emoji" font-size="22.575239034568487px" fill="#000000" text-anchor="start" style="white-space: pre;" direction="ltr">record with id=1</text></g><g stroke-linecap="round"><g transform="translate(1642.5130666250554 414.3366346374458) rotate(0 -117.58586788300283 0)"><path d="M0 0 C-39.2 0, -195.98 0, -235.17 0 M0 0 C-39.2 0, -195.98 0, -235.17 0" stroke="#000000" stroke-width="1" fill="none"></path></g><g transform="translate(1642.5130666250554 414.3366346374458) rotate(0 -117.58586788300283 0)"><path d="M-206.98 -10.26 C-213.57 -7.86, -220.17 -5.46, -235.17 0 M-206.98 -10.26 C-217.15 -6.56, -227.32 -2.86, -235.17 0" stroke="#000000" stroke-width="1" fill="none"></path></g><g transform="translate(1642.5130666250554 414.3366346374458) rotate(0 -117.58586788300283 0)"><path d="M-206.98 10.26 C-213.57 7.86, -220.17 5.46, -235.17 0 M-206.98 10.26 C-217.15 6.56, -227.32 2.86, -235.17 0" stroke="#000000" stroke-width="1" fill="none"></path></g></g><g transform="translate(1450.1878152229435 430.9745548973079) rotate(0 75 23)"><text x="0" y="19" font-family="Helvetica, Segoe UI Emoji" font-size="20px" fill="#000000" text-anchor="start" style="white-space: pre;" direction="ltr">Returns an array</text><text x="0" y="42" font-family="Helvetica, Segoe UI Emoji" font-size="20px" fill="#000000" text-anchor="start" style="white-space: pre;" direction="ltr">with one hash</text></g><g stroke-linecap="round"><g transform="translate(1148.4831915227435 465.6909830681859) rotate(0 -124.53472961062471 0)"><path d="M0 0 C-41.51 0, -207.56 0, -249.07 0 M0 0 C-41.51 0, -207.56 0, -249.07 0" stroke="#000000" stroke-width="1" fill="none"></path></g><g transform="translate(1148.4831915227435 465.6909830681859) rotate(0 -124.53472961062471 0)"><path d="M-220.88 -10.26 C-228.36 -7.54, -235.84 -4.82, -249.07 0 M-220.88 -10.26 C-230.78 -6.66, -240.68 -3.05, -249.07 0" stroke="#000000" stroke-width="1" fill="none"></path></g><g transform="translate(1148.4831915227435 465.6909830681859) rotate(0 -124.53472961062471 0)"><path d="M-220.88 10.26 C-228.36 7.54, -235.84 4.82, -249.07 0 M-220.88 10.26 C-230.78 6.66, -240.68 3.05, -249.07 0" stroke="#000000" stroke-width="1" fill="none"></path></g></g><g transform="translate(921.6976133212659 374.85047068522255) rotate(0 103.5 34.5)"><text x="0" y="19" font-family="Helvetica, Segoe UI Emoji" font-size="20px" fill="#000000" text-anchor="start" style="white-space: pre;" direction="ltr">Returns an artist object</text><text x="0" y="42" font-family="Helvetica, Segoe UI Emoji" font-size="20px" fill="#000000" text-anchor="start" style="white-space: pre;" direction="ltr">corresponding to the</text><text x="0" y="65" font-family="Helvetica, Segoe UI Emoji" font-size="20px" fill="#000000" text-anchor="start" style="white-space: pre;" direction="ltr">artist record</text></g><g stroke-linecap="round" transform="translate(1164.6508166972624 566.171200148232) rotate(0 114.48967149629561 128.08129341653114)"><path d="M0 0 C56.68 0, 113.36 0, 228.98 0 M0 0 C45.86 0, 91.72 0, 228.98 0 M228.98 0 C228.98 95.53, 228.98 191.07, 228.98 256.16 M228.98 0 C228.98 80, 228.98 159.99, 228.98 256.16 M228.98 256.16 C151.1 256.16, 73.22 256.16, 0 256.16 M228.98 256.16 C165.71 256.16, 102.45 256.16, 0 256.16 M0 256.16 C0 178.97, 0 101.78, 0 0 M0 256.16 C0 160.64, 0 65.12, 0 0" stroke="#000000" stroke-width="1" fill="none"></path></g><g transform="translate(1214.140488193558 646.2524935647631) rotate(0 65 32)"><text x="65" y="26" font-family="Helvetica, Segoe UI Emoji" font-size="28px" fill="#000000" text-anchor="middle" style="white-space: pre;" direction="ltr">View</text><text x="65" y="58" font-family="Helvetica, Segoe UI Emoji" font-size="28px" fill="#000000" text-anchor="middle" style="white-space: pre;" direction="ltr">(artist.erb)</text></g><g stroke-linecap="round"><g transform="translate(894.21771959117 611.4073322273032) rotate(0 131.97451029684316 0)"><path d="M0 0 C43.99 0, 219.96 0, 263.95 0 M0 0 C43.99 0, 219.96 0, 263.95 0" stroke="#000000" stroke-width="1" fill="none"></path></g><g transform="translate(894.21771959117 611.4073322273032) rotate(0 131.97451029684316 0)"><path d="M235.76 10.26 C244.79 6.97, 253.82 3.69, 263.95 0 M235.76 10.26 C244.24 7.17, 252.73 4.08, 263.95 0" stroke="#000000" stroke-width="1" fill="none"></path></g><g transform="translate(894.21771959117 611.4073322273032) rotate(0 131.97451029684316 0)"><path d="M235.76 -10.26 C244.79 -6.97, 253.82 -3.69, 263.95 0 M235.76 -10.26 C244.24 -7.17, 252.73 -4.08, 263.95 0" stroke="#000000" stroke-width="1" fill="none"></path></g></g><g transform="translate(903.8191405806942 572.107968793375) rotate(0 112 11.5)"><text x="0" y="19" font-family="Helvetica, Segoe UI Emoji" font-size="20px" fill="#000000" text-anchor="start" style="white-space: pre;" direction="ltr">Send artist object to view</text></g><g stroke-linecap="round"><g transform="translate(1409.3623581510435 641.3061294789527) rotate(0 20.158247422333716 35.01816962629471)"><path d="M0 0 C6.71 5.13, 39.26 19.13, 40.29 30.8 C41.32 42.47, 11.88 63.5, 6.2 70.04 M0 0 C6.71 5.13, 39.26 19.13, 40.29 30.8 C41.32 42.47, 11.88 63.5, 6.2 70.04" stroke="#000000" stroke-width="1" fill="none"></path></g><g transform="translate(1409.3623581510435 641.3061294789527) rotate(0 20.158247422333716 35.01816962629471)"><path d="M18.29 47.03 C13.82 55.54, 9.35 64.05, 6.2 70.04 M18.29 47.03 C14.6 54.04, 10.92 61.06, 6.2 70.04" stroke="#000000" stroke-width="1" fill="none"></path></g><g transform="translate(1409.3623581510435 641.3061294789527) rotate(0 20.158247422333716 35.01816962629471)"><path d="M30.25 60.18 C21.35 63.83, 12.46 67.47, 6.2 70.04 M30.25 60.18 C22.91 63.19, 15.58 66.19, 6.2 70.04" stroke="#000000" stroke-width="1" fill="none"></path></g></g><g transform="translate(1469.2846464334275 646.7555281047773) rotate(0 66 23)"><text x="0" y="19" font-family="Helvetica, Segoe UI Emoji" font-size="20px" fill="#000000" text-anchor="start" style="white-space: pre;" direction="ltr">Compile erb</text><text x="0" y="42" font-family="Helvetica, Segoe UI Emoji" font-size="20px" fill="#000000" text-anchor="start" style="white-space: pre;" direction="ltr">into raw HTML</text></g><g stroke-linecap="round"><g transform="translate(1146.5147992726056 746.6862276698917) rotate(0 -124.71456138124347 0)"><path d="M0 0 C-41.57 0, -207.86 0, -249.43 0 M0 0 C-41.57 0, -207.86 0, -249.43 0" stroke="#000000" stroke-width="1" fill="none"></path></g><g transform="translate(1146.5147992726056 746.6862276698917) rotate(0 -124.71456138124347 0)"><path d="M-221.24 -10.26 C-231.1 -6.67, -240.96 -3.08, -249.43 0 M-221.24 -10.26 C-229.92 -7.1, -238.59 -3.94, -249.43 0" stroke="#000000" stroke-width="1" fill="none"></path></g><g transform="translate(1146.5147992726056 746.6862276698917) rotate(0 -124.71456138124347 0)"><path d="M-221.24 10.26 C-231.1 6.67, -240.96 3.08, -249.43 0 M-221.24 10.26 C-229.92 7.1, -238.59 3.94, -249.43 0" stroke="#000000" stroke-width="1" fill="none"></path></g></g><g transform="translate(950.9603165068932 710.2177342267332) rotate(0 85 11.5)"><text x="0" y="19" font-family="Helvetica, Segoe UI Emoji" font-size="20px" fill="#000000" text-anchor="start" style="white-space: pre;" direction="ltr">Returns raw HTML</text></g><g stroke-linecap="round"><g transform="translate(629.4374071369185 793.5572337414071) rotate(0 -177.6851714796536 0)"><path d="M0 0 C-59.23 0, -296.14 0, -355.37 0 M0 0 C-59.23 0, -296.14 0, -355.37 0" stroke="#000000" stroke-width="1" fill="none"></path></g><g transform="translate(629.4374071369185 793.5572337414071) rotate(0 -177.6851714796536 0)"><path d="M-327.18 -10.26 C-334.2 -7.71, -341.22 -5.15, -355.37 0 M-327.18 -10.26 C-333.99 -7.78, -340.81 -5.3, -355.37 0" stroke="#000000" stroke-width="1" fill="none"></path></g><g transform="translate(629.4374071369185 793.5572337414071) rotate(0 -177.6851714796536 0)"><path d="M-327.18 10.26 C-334.2 7.71, -341.22 5.15, -355.37 0 M-327.18 10.26 C-333.99 7.78, -340.81 5.3, -355.37 0" stroke="#000000" stroke-width="1" fill="none"></path></g></g><g transform="translate(295.31349864721483 633.9104221055941) rotate(0 152 64)"><text x="0" y="26" font-family="Helvetica, Segoe UI Emoji" font-size="28px" fill="#000000" text-anchor="start" style="white-space: pre;" direction="ltr">HTTP Response</text><text x="0" y="58" font-family="Helvetica, Segoe UI Emoji" font-size="28px" fill="#000000" text-anchor="start" style="white-space: pre;" direction="ltr">Status: 200 OK</text><text x="0" y="90" font-family="Helvetica, Segoe UI Emoji" font-size="28px" fill="#000000" text-anchor="start" style="white-space: pre;" direction="ltr">body:</text><text x="0" y="122" font-family="Helvetica, Segoe UI Emoji" font-size="28px" fill="#000000" text-anchor="start" style="white-space: pre;" direction="ltr">    HTML from artist view</text></g></svg>